<?xml version="1.0" encoding="utf-8"?>
<!-- Generator: Adobe Illustrator 23.1.0, SVG Export Plug-In . SVG Version: 6.00 Build 0)  -->
<svg version="1.1" id="Ebene_1" xmlns="http://www.w3.org/2000/svg" xmlns:xlink="http://www.w3.org/1999/xlink" x="0px" y="0px"
	 viewBox="0 0 99.7 99.1" style="enable-background:new 0 0 99.7 99.1;" xml:space="preserve">
<style type="text/css">
	.st0{fill:#FFFFFF;}
	.st1{display:none;fill:#FFFFFF;}
	.st2{fill:#3D4A52;}
</style>
<rect y="91" class="st0" width="99.7" height="8"/>
<path class="st1" d="M45.9,67.4l-5.8-1.7c-0.6-0.2-1-0.8-0.8-1.4l13-44.9c0.2-0.6,0.8-1,1.4-0.8l5.8,1.7c0.6,0.2,1,0.8,0.8,1.4
	l-13,44.9C47.2,67.2,46.5,67.6,45.9,67.4z M35.1,56.7l4.2-4.4c0.4-0.5,0.4-1.2-0.1-1.6L30.5,43l8.6-7.6c0.5-0.4,0.5-1.2,0.1-1.6
	l-4.2-4.4c-0.4-0.5-1.2-0.5-1.6,0L19.7,42.2c-0.5,0.4-0.5,1.2,0,1.7l13.7,12.9C33.9,57.2,34.6,57.1,35.1,56.7L35.1,56.7z M66.3,56.7
	L80,43.8c0.5-0.4,0.5-1.2,0-1.7L66.3,29.3c-0.5-0.4-1.2-0.4-1.6,0l-4.2,4.4c-0.4,0.5-0.4,1.2,0.1,1.6l8.6,7.6l-8.6,7.6
	c-0.5,0.4-0.5,1.2-0.1,1.6l4.2,4.4C65.1,57.1,65.8,57.2,66.3,56.7L66.3,56.7z"/>
<path class="st1" d="M71,30.7c0-4.9-3.9-8.8-8.8-8.8s-8.8,3.9-8.8,8.8c0,4,2.7,7.4,6.3,8.4c-0.1,1.8-0.5,3.1-1.2,4.1
	c-1.7,2.1-5.4,2.5-9.4,2.8c-3.1,0.3-6.3,0.6-8.9,1.9V32c3.6-1.1,6.2-4.5,6.2-8.4c0-4.9-3.9-8.8-8.8-8.8s-8.8,3.9-8.8,8.8
	c0,3.9,2.6,7.3,6.2,8.4V54c-3.6,1.1-6.2,4.5-6.2,8.4c0,4.9,3.9,8.8,8.8,8.8s8.8-3.9,8.8-8.8c0-3.7-2.3-6.9-5.6-8.2
	c0.3-0.6,0.9-1.1,1.6-1.5c1.8-0.9,4.4-1.1,7.3-1.4c4.6-0.4,9.9-0.9,13-4.8c1.5-1.9,2.3-4.4,2.4-7.5C68.5,37.8,71,34.6,71,30.7
	L71,30.7z M37.5,21.9c1,0,1.8,0.8,1.8,1.8s-0.8,1.8-1.8,1.8c-1,0-1.8-0.8-1.8-1.8S36.6,21.9,37.5,21.9z M37.5,64.1
	c-1,0-1.8-0.8-1.8-1.8s0.8-1.8,1.8-1.8c1,0,1.8,0.8,1.8,1.8S38.5,64.1,37.5,64.1z M62.2,28.9c1,0,1.8,0.8,1.8,1.8s-0.8,1.8-1.8,1.8
	s-1.8-0.8-1.8-1.8S61.2,28.9,62.2,28.9z"/>
<rect x="0" class="st2" width="99.7" height="86"/>
<path class="st0" d="M21.7,64.1V21.9h2v42.2H21.7z M24.6,64.1V21.9h1v42.2H24.6z M27.6,64.1V21.9h1v42.2H27.6z M32.6,64.1V21.9h1
	v42.2H32.6z M36.5,64.1V21.9h1.9v42.2H36.5z M41.5,64.1V21.9h1v42.2H41.5z M43.4,64.1V21.9h1v42.2H43.4z M45.4,64.1V21.9h1v42.2
	H45.4z M49.3,64.1V21.9h2v42.2H49.3z M54.3,64.1V21.9h2v42.2H54.3z M58.2,64.1V21.9h2v42.2H58.2z M62.2,64.1V21.9h2v42.2H62.2z
	 M65.2,64.1V21.9h2v42.2H65.2z M70.1,64.1V21.9h3v42.2H70.1z M74.1,64.1V21.9h1v42.2H74.1L74.1,64.1z M76,64.1V21.9h2v42.2H76z"/>
</svg>
