<?xml version="1.0" encoding="utf-8"?>
<!-- Generator: Adobe Illustrator 23.0.1, SVG Export Plug-In . SVG Version: 6.00 Build 0)  -->
<svg version="1.1" id="Ebene_1" xmlns="http://www.w3.org/2000/svg" xmlns:xlink="http://www.w3.org/1999/xlink" x="0px" y="0px"
	 viewBox="0 0 99.7 99.1" style="enable-background:new 0 0 99.7 99.1;" xml:space="preserve">
<style type="text/css">
	.st0{fill:#3D4A52;}
	.st1{fill:#FFFFFF;}
</style>
<g>
	<g>
		<rect x="0" y="0" class="st0" width="99.7" height="86"/>
		<path class="st1" d="M79.7,42.2c-0.3,0.2-0.7,0.3-1,0.3c-1.5,0.1-3,0-4.6,0c0.3-2.4,0.6-4.9,0.9-7.3c1.5,0,2.9-0.1,4.3,0
			c1.3,0.1,2,0.9,2.3,2.2C82.1,39.3,81.2,41.3,79.7,42.2 M87.9,34.6c-0.8-2.6-3.4-4.6-6.6-4.8c-3.2-0.1-6.5-0.1-9.8-0.1
			c-1.2,0-1.9,0.7-2.1,1.9c-0.2,1.7-0.4,3.4-0.6,5.1c-0.5,4.2-1.1,8.5-1.5,12.7c-0.3,2.1-0.5,4.2-0.7,6.3c-0.2,1.5,0.5,2.2,2,2.2
			c0.7,0,1.3,0,2,0c1.2-0.1,1.9-0.7,2.1-1.9c0.1-1,0.3-2.1,0.4-3.1c0.2-1.5,0.4-3.2,0.6-4.8c0.3,0,4.6,0,6.5-0.3
			C86.1,46.7,89.7,40.6,87.9,34.6"/>
		<path class="st1" d="M33,38.3c-0.4,3-0.7,6.1-1.1,9.1h-6.3l7.4-9.5C33.1,38,33,38.2,33,38.3 M38.2,29.7c-0.1,0-3.2,0-3.2,0
			c-1.2,0-2.1-0.1-3.1,1.5C31.6,31.5,11.5,57.4,9.6,60c-0.8,1-0.1,1.8,2,1.8c0.5,0,1.2,0,1.7,0c1.1,0,1.9-0.3,2.8-1.6
			c0.7-0.9,4.4-5.8,5-6.7c0.8-1.2,0.9-1.3,2.3-1.3h7.7c0,0-0.3,2.5-0.4,3.8c-0.1,1.1,0.5,1.7,1.5,1.7c0.4,0.1,1.9,0,2.2,0
			c1.2-0.1,1.9-0.6,2.2-1.8c0.1-0.5,0.1-0.9,0.2-1.3c0.5-4.2,1.1-8.5,1.6-12.8c0.4-3.4,0.9-6.8,1.3-10.2
			C40,30.4,39.5,29.7,38.2,29.7"/>
		<path class="st1" d="M62.9,30.4c-1.5-0.7-3.2-0.9-4.8-0.9H58c-8.1,0-14.3,5.7-15.3,14.3c-0.5,4.3,0.5,8.1,2.8,10.8
			c2.1,2.4,5.2,3.6,9,3.6c2.9,0,5.5-0.7,7.1-1.9c0.8-0.6,1-2,1.1-3v-0.1c0.1-0.7,0.1-1.7-0.2-2.1c-0.3-0.3-0.7-0.3-1.5,0
			c-0.3,0.1-0.5,0.2-0.8,0.3c-1.3,0.5-2.5,1-5.2,1c-1.7,0-3.2-0.6-4.3-1.8c-1.4-1.5-2-4-1.7-6.7c0.5-4,3-8.6,8.5-8.6
			c1.7,0,2.9,0.5,3.9,0.9c0.4,0.2,0.8,0.3,1.2,0.5c1.1,0.3,1.7-0.3,2-2.2C65.2,31.5,64.3,30.9,62.9,30.4"/>
	</g>
	<rect x="0" y="91" class="st1" width="99.7" height="8"/>
</g>
</svg>
