<?xml version="1.0" encoding="utf-8"?>
<!-- Generator: Adobe Illustrator 23.1.0, SVG Export Plug-In . SVG Version: 6.00 Build 0)  -->
<svg version="1.1" id="Ebene_1" xmlns="http://www.w3.org/2000/svg" xmlns:xlink="http://www.w3.org/1999/xlink" x="0px" y="0px"
	 viewBox="0 0 99.7 99.1" style="enable-background:new 0 0 99.7 99.1;" xml:space="preserve">
<style type="text/css">
	.st0{fill:#FFFFFF;}
	.st1{fill:#3D4A52;}
</style>
<rect y="91" class="st0" width="99.7" height="8"/>
<rect x="0" class="st1" width="99.7" height="86"/>
<path class="st0" d="M45.9,67.4l-5.8-1.7c-0.6-0.2-1-0.8-0.8-1.4l13-44.9c0.2-0.6,0.8-1,1.4-0.8l5.8,1.7c0.6,0.2,1,0.8,0.8,1.4
	l-13,44.9C47.2,67.2,46.5,67.6,45.9,67.4z M35.1,56.7l4.2-4.4c0.4-0.5,0.4-1.2-0.1-1.6L30.5,43l8.6-7.6c0.5-0.4,0.5-1.2,0.1-1.6
	l-4.2-4.4c-0.4-0.5-1.2-0.5-1.6,0L19.7,42.2c-0.5,0.4-0.5,1.2,0,1.7l13.7,12.9C33.9,57.2,34.6,57.1,35.1,56.7L35.1,56.7z M66.3,56.7
	L80,43.8c0.5-0.4,0.5-1.2,0-1.7L66.3,29.3c-0.5-0.4-1.2-0.4-1.6,0l-4.2,4.4c-0.4,0.5-0.4,1.2,0.1,1.6l8.6,7.6l-8.6,7.6
	c-0.5,0.4-0.5,1.2-0.1,1.6l4.2,4.4C65.1,57.1,65.8,57.2,66.3,56.7L66.3,56.7z"/>
</svg>
